<?xml version="1.0" standalone="no"?>
<!DOCTYPE svg PUBLIC "-//W3C//DTD SVG 20010904//EN"
 "http://www.w3.org/TR/2001/REC-SVG-20010904/DTD/svg10.dtd">
<svg version="1.0" xmlns="http://www.w3.org/2000/svg"
 width="1024.000000pt" height="576.000000pt" viewBox="0 0 1024.000000 576.000000"
 preserveAspectRatio="xMidYMid meet">

<g transform="translate(0.000000,576.000000) scale(0.100000,-0.100000)"
fill="#000000" stroke="none">
<path d="M0 5577 l0 -183 148 -18 c81 -10 217 -26 302 -36 418 -50 736 -91
749 -98 15 -8 23 -143 10 -164 -4 -7 -24 -8 -54 -4 -33 5 -45 4 -40 -3 3 -6
14 -11 23 -12 9 0 1 -6 -18 -13 -35 -13 -35 -13 -12 -25 13 -7 21 -15 19 -18
-3 -2 6 -26 19 -53 13 -26 26 -61 29 -77 2 -15 7 -46 11 -68 9 -56 22 -403 23
-634 1 -107 4 -191 7 -188 4 3 14 2 23 -2 14 -8 16 -30 13 -165 -2 -124 -6
-156 -17 -156 -7 0 -16 6 -18 13 -3 6 -6 -9 -6 -35 -1 -42 2 -48 19 -48 16 0
20 -7 20 -34 0 -26 -4 -33 -18 -32 -15 1 -17 -11 -20 -96 -2 -84 0 -98 13 -98
12 0 15 -8 13 -32 -2 -20 -8 -32 -15 -30 -10 1 -13 -31 -13 -137 l0 -139 -42
-36 c-23 -20 -47 -35 -52 -33 -7 2 -13 64 -16 158 -3 85 -7 135 -8 112 -1 -23
-6 -45 -12 -48 -5 -3 -10 -30 -11 -58 -1 -42 -3 -47 -9 -27 -6 18 -7 11 -4
-21 6 -47 -9 -95 -25 -84 -5 3 -9 -5 -8 -18 0 -36 -10 -71 -32 -107 -19 -31
-19 -36 -5 -57 11 -18 12 -28 4 -44 -10 -18 -10 -19 8 -10 14 8 22 6 35 -10 9
-10 17 -23 17 -28 0 -5 5 -11 12 -13 14 -5 13 -71 -1 -76 -16 -5 -13 -22 4
-22 10 0 15 -10 15 -30 0 -16 4 -30 10 -30 5 0 7 -8 3 -17 -3 -10 -3 -15 2
-11 4 4 13 3 20 -2 6 -5 29 -12 49 -14 48 -7 44 15 -4 25 -54 11 -60 28 -60
173 0 159 8 236 25 236 7 0 18 7 26 16 7 8 21 13 31 11 15 -4 17 -1 13 13 -4
13 24 45 112 128 l118 111 6 -32 c4 -18 7 -26 8 -19 0 7 6 10 11 7 16 -10 12
-51 -6 -66 -15 -12 -16 -11 -10 11 l8 25 -18 -25 c-10 -14 -17 -33 -16 -42 2
-9 -8 -24 -23 -34 -14 -9 -23 -19 -20 -22 3 -3 -9 -14 -26 -24 l-31 -19 28
-37 c16 -20 35 -42 43 -48 8 -6 11 -16 7 -22 -3 -6 0 -14 8 -19 8 -4 15 -11
15 -15 1 -5 1 -14 2 -20 0 -7 4 -4 9 7 8 17 9 16 11 -10 5 -76 3 -137 -5 -142
-5 -4 -6 0 -1 7 6 9 4 11 -4 5 -9 -5 -10 -10 -2 -18 14 -14 14 -30 1 -22 -12
7 -2 -21 18 -52 29 -45 3 -21 -110 105 -187 208 -195 215 -201 199 -3 -9 18
-37 55 -73 49 -48 144 -165 170 -209 4 -6 -2 -11 -12 -11 -10 0 -16 4 -14 8 3
5 -4 20 -15 34 -12 15 -21 22 -21 17 0 -5 3 -13 8 -17 13 -14 9 -185 -5 -190
-20 -8 -22 4 -22 129 l1 118 -31 31 -31 31 0 -122 c0 -70 4 -124 10 -128 6 -3
10 -11 10 -16 0 -6 -4 -7 -10 -4 -7 4 -10 -77 -10 -234 0 -212 -2 -241 -16
-241 -8 0 -12 -5 -9 -10 6 -9 -50 -27 -68 -22 -13 4 -42 -30 -43 -49 -1 -20
38 -39 96 -48 31 -5 36 -10 41 -41 6 -30 7 -31 8 -7 1 29 21 38 22 10 1 -27 0
-296 -1 -313 -1 -10 -4 -9 -10 5 -5 11 -10 76 -11 145 -5 261 -17 -287 -22
-972 l-5 -678 844 0 843 0 3 238 c2 130 5 563 6 961 2 398 5 728 7 732 3 4 51
11 107 15 57 5 87 10 68 12 -41 4 -66 22 -31 22 20 0 21 2 7 15 -8 8 -19 15
-25 15 -18 0 -12 18 7 23 9 3 -1 4 -23 4 -91 -2 -155 4 -155 13 0 6 9 10 20
10 20 0 20 7 20 276 0 257 -5 314 -28 314 -4 0 -8 -129 -10 -287 -1 -158 -5
-289 -7 -292 -13 -12 -16 21 -15 185 1 99 1 188 1 199 -1 134 0 209 5 217 3 5
-12 32 -34 61 -22 29 -47 64 -57 80 -15 24 -16 27 -1 27 17 0 57 -52 176 -228
72 -106 100 -136 108 -113 2 6 8 9 13 5 12 -7 -89 150 -152 237 -31 42 -47 73
-43 83 3 9 1 16 -5 16 -6 0 -8 7 -4 16 5 14 3 15 -15 5 -29 -15 -49 -14 -56 5
-5 13 -1 15 19 12 14 -3 25 -1 25 3 0 5 14 9 31 9 18 0 44 11 65 28 37 29 44
45 17 35 -17 -5 -17 -5 0 13 10 10 25 19 35 19 27 0 39 90 20 146 -12 35 -20
44 -36 42 -13 -2 -26 5 -32 17 -8 16 -8 20 2 18 19 -4 11 54 -9 69 -13 10 -17
31 -17 90 -1 51 -5 78 -13 80 -10 4 -13 -17 -13 -82 0 -77 -2 -86 -17 -83 -15
3 -18 17 -21 96 -3 88 -4 92 -27 98 -32 8 -32 22 0 30 23 6 25 11 25 65 0 46
-3 57 -14 53 -8 -3 -19 3 -24 13 -11 20 -5 81 9 99 5 6 7 19 3 27 -8 22 6 43
17 26 5 -8 9 134 10 331 0 190 3 356 5 369 8 44 14 36 14 -20 0 -30 3 -101 6
-159 2 -58 6 -187 8 -288 2 -121 7 -187 14 -194 9 -9 12 96 13 433 0 457 1
476 14 667 l8 113 66 -6 c36 -3 95 -10 131 -15 36 -5 106 -14 155 -20 50 -6
161 -19 248 -30 87 -11 160 -20 163 -20 2 0 4 -17 5 -37 0 -31 2 -34 9 -18 5
12 9 14 9 6 1 -8 4 -12 7 -9 3 4 1 16 -6 27 -9 18 -8 21 7 21 22 0 549 -62
758 -90 83 -11 215 -26 295 -35 80 -8 183 -20 230 -25 47 -6 189 -22 315 -36
127 -14 262 -30 300 -35 39 -4 104 -11 145 -13 l75 -5 -85 12 c-69 10 -80 14
-57 20 15 4 25 12 22 17 -3 5 -12 7 -19 4 -7 -3 -29 2 -47 10 -20 8 -27 15
-16 15 9 1 17 5 17 10 0 17 -18 21 -46 11 -17 -7 -30 -7 -33 -1 -3 5 -17 9
-31 9 -14 0 -47 5 -75 11 -27 7 -88 16 -135 22 -47 6 -102 13 -122 16 -34 4
-38 3 -38 -16 0 -14 8 -23 25 -27 14 -3 25 -9 25 -13 0 -4 17 -5 38 -3 23 2
32 0 24 -5 -7 -6 9 -10 45 -10 116 -2 166 -7 147 -14 -14 -5 -8 -8 21 -9 22
-1 49 -3 60 -4 11 -1 39 -3 63 -4 23 -1 42 -7 42 -13 0 -7 -20 -9 -62 -4 -63
6 -377 44 -538 65 -107 13 -225 27 -360 40 -58 6 -157 17 -220 26 -63 8 -209
26 -325 39 -115 13 -255 29 -310 36 -133 15 -135 16 -107 39 12 10 22 23 22
28 0 14 26 22 78 23 36 0 42 3 27 9 -15 6 -7 9 30 9 38 1 46 -2 35 -10 -13 -9
-12 -10 3 -5 10 3 28 -1 41 -9 15 -10 34 -13 54 -9 24 5 33 2 38 -10 3 -9 12
-16 20 -16 8 0 14 -4 14 -9 0 -5 10 -7 22 -3 21 5 21 5 -3 15 -36 14 -7 20 56
12 29 -3 59 -13 66 -21 6 -8 23 -14 38 -13 l26 1 -25 8 c-20 6 -16 8 23 9 27
1 46 -2 44 -6 -3 -5 14 -9 36 -9 72 -2 154 -20 135 -28 -35 -16 -18 -33 45
-45 34 -7 78 -13 97 -14 65 -4 135 -19 150 -33 18 -15 81 -20 125 -10 24 6 27
5 15 -4 -12 -9 -1 -10 48 -6 44 4 62 2 62 -6 0 -7 5 -5 13 4 6 9 23 18 36 20
37 5 39 28 2 28 -19 0 -30 5 -28 13 1 6 -6 11 -15 11 -10 -1 -18 2 -18 7 0 4
-15 10 -32 12 -18 2 8 2 57 0 50 -2 122 -9 160 -14 39 -5 123 -10 188 -11 64
0 117 -5 117 -9 0 -16 28 -9 34 7 4 9 5 18 4 20 -3 2 -67 27 -125 47 -18 7
-33 17 -33 24 0 16 -58 31 -285 73 -241 45 -341 58 -640 85 -93 8 -196 20
-228 26 -31 5 -61 8 -65 5 -4 -2 -55 8 -113 23 -86 23 -167 38 -226 43 -4 0
-15 -12 -24 -28 -11 -19 -23 -28 -35 -26 -10 2 -30 3 -43 3 -13 -1 -30 4 -37
10 -15 12 -20 79 -6 79 5 0 13 12 19 28 l11 27 1 -27 c1 -20 6 -28 19 -28 9 0
28 -3 41 -7 16 -4 22 -3 17 5 -9 15 34 53 53 47 19 -5 166 -24 231 -29 59 -5
155 -21 205 -34 22 -6 89 -18 150 -27 60 -9 112 -20 115 -24 3 -4 55 -14 115
-21 61 -7 117 -14 125 -15 8 -1 83 -11 165 -20 83 -10 152 -21 155 -25 3 -4
34 -10 70 -14 36 -4 101 -13 145 -21 122 -21 185 -25 185 -14 0 6 7 3 16 -5 9
-9 33 -16 57 -16 23 0 52 -3 65 -6 23 -7 32 11 10 19 -7 2 -4 3 7 1 11 -2 35
-4 53 -4 32 0 46 -23 20 -33 -7 -2 27 -3 76 -1 59 2 92 7 97 16 7 10 11 10 21
0 9 -9 9 -12 -5 -12 -9 0 -17 -7 -17 -15 0 -10 10 -15 30 -15 17 0 30 5 30 10
0 6 5 10 10 10 6 0 10 -7 10 -15 0 -9 10 -16 28 -17 147 -8 278 -41 244 -62
-7 -4 -235 -7 -417 -4 -11 0 -73 -3 -137 -8 -114 -7 -118 -8 -118 -30 0 -20 6
-23 63 -29 105 -10 131 -14 157 -19 14 -3 68 -10 120 -17 52 -7 106 -17 120
-24 14 -7 31 -10 38 -8 7 3 21 -2 30 -11 11 -9 27 -13 42 -10 22 5 21 3 -7
-16 -37 -25 -41 -36 -15 -43 16 -4 16 -5 0 -6 -10 0 -18 -5 -18 -11 0 -5 7 -7
15 -4 11 4 13 2 10 -9 -5 -11 0 -14 22 -11 27 4 27 4 4 -6 -13 -6 -44 -9 -70
-6 -25 2 -34 1 -18 -1 26 -4 27 -6 27 -69 0 -63 -1 -64 -26 -64 l-27 0 6 -202
c4 -112 10 -417 14 -678 4 -261 9 -467 11 -457 4 20 22 23 22 3 0 -8 6 -17 13
-19 6 -3 0 -6 -14 -6 l-27 -1 -1 -89 c-1 -49 1 -96 5 -104 5 -14 7 -14 23 0
16 13 18 27 13 94 -3 57 -1 79 7 79 9 0 12 -28 11 -92 -1 -51 -1 -97 0 -103 1
-5 1 -27 0 -48 -1 -33 1 -38 17 -35 16 3 19 18 24 138 4 96 5 60 5 -123 -1
-141 1 -257 4 -257 7 0 5 -48 -2 -55 -6 -6 -46 -13 -80 -14 -17 -1 -18 -17
-18 -185 0 -198 1 -195 -53 -197 -20 -1 -20 -2 3 -8 16 -4 26 -15 29 -31 1
-14 8 -28 14 -32 11 -7 -4 -1782 -16 -1794 -5 -6 -161 -33 -319 -57 -37 -6
-38 -5 -39 26 -1 18 -3 24 -6 15 -2 -10 -9 -18 -14 -18 -5 0 -9 116 -10 283
-2 598 0 939 5 945 3 3 6 -28 6 -69 0 -41 5 -81 10 -89 6 -10 10 39 10 147 0
120 -3 162 -12 165 -10 4 -14 57 -17 208 -4 226 -6 220 67 220 39 0 42 2 33
19 -6 10 -7 21 -4 25 3 3 1 6 -5 6 -24 0 -11 19 16 23 15 2 -7 5 -48 6 -41 2
-70 4 -65 7 6 2 9 63 9 156 -2 165 3 228 17 228 5 0 18 9 28 19 11 11 28 17
38 15 30 -8 55 31 77 119 22 86 31 95 79 83 17 -4 27 -21 41 -68 21 -68 34
-91 46 -83 5 3 11 1 14 -4 4 -5 -4 -13 -16 -17 -12 -3 -28 -13 -36 -20 -7 -8
-21 -14 -30 -14 -15 0 -15 -2 -2 -10 20 -13 98 -13 113 0 7 6 23 18 37 29 24
18 24 20 11 72 -7 30 -19 69 -27 87 -12 31 -15 32 -68 32 -30 0 -57 4 -60 9
-6 9 40 21 80 21 28 0 29 10 8 76 -22 65 -34 77 -31 30 3 -59 -17 -53 -37 9
-13 42 -22 55 -37 55 -10 0 -19 5 -19 10 0 6 5 10 10 10 6 0 10 9 10 20 0 21
30 151 37 159 2 3 10 -4 17 -15 17 -23 30 -14 21 15 -5 18 -14 21 -65 21 -76
0 -90 -6 -90 -39 0 -15 -4 -31 -8 -37 -4 -5 -19 -44 -33 -86 -13 -43 -27 -78
-31 -78 -5 0 -8 -9 -8 -20 0 -11 4 -20 10 -20 18 0 -38 -207 -64 -233 -7 -7
-16 -22 -20 -33 -3 -12 -13 -21 -21 -21 -17 0 -20 13 -4 22 12 8 4 151 -12
201 -12 40 -40 193 -40 219 1 64 -1 79 -17 100 -9 13 -26 23 -37 22 -11 -1
-21 5 -23 15 -3 15 7 17 65 20 l68 3 1 60 0 60 -3 -57 c-4 -59 -13 -69 -39
-44 -18 19 -18 55 1 62 8 4 15 10 15 15 0 5 -7 9 -15 9 -11 0 -15 11 -16 38 0
20 -1 65 -3 99 -1 34 3 72 10 85 7 14 9 30 4 44 -6 16 -5 26 5 34 11 10 11 14
-3 28 -15 15 -17 46 -20 212 -2 107 -6 198 -8 201 -2 4 -13 5 -24 2 -31 -8
-70 5 -64 21 4 11 -4 17 -29 21 -18 4 -40 6 -48 4 -8 -1 -25 2 -39 8 -14 6
-63 14 -110 18 -47 4 -96 8 -110 10 -14 1 -54 3 -89 3 -54 2 -62 4 -57 18 6
14 4 15 -10 4 -13 -12 -17 -11 -25 1 -5 8 -9 19 -9 26 0 15 -19 20 -95 27
-149 14 -243 17 -250 6 -3 -5 -11 -10 -16 -10 -6 0 -8 4 -4 9 9 15 -23 20
-120 18 -90 -2 -244 14 -277 28 -14 6 -18 2 -18 -18 0 -23 -3 -24 -42 -20 -40
4 -58 4 -90 3 -7 0 -33 2 -58 4 -25 3 -72 7 -105 10 -33 4 -66 2 -74 -3 -16
-10 -17 -62 -13 -691 5 -687 2 -879 -12 -835 -7 22 -22 58 -33 80 -11 22 -28
66 -37 97 -9 32 -27 78 -40 103 -22 41 -24 57 -25 192 -1 81 -4 149 -6 152 -3
2 -5 -48 -5 -112 0 -65 -4 -117 -8 -117 -5 0 -17 25 -27 55 l-19 55 -53 0
c-52 0 -54 -1 -71 -37 -9 -21 -23 -42 -29 -46 -7 -4 -13 -17 -13 -27 0 -11 -4
-20 -8 -20 -9 0 -27 624 -18 638 3 5 6 131 7 280 l1 272 24 6 c13 3 29 4 36 1
7 -3 3 -6 -9 -6 -17 -1 -21 -6 -18 -27 1 -15 7 -29 12 -33 5 -3 14 -26 20 -51
10 -43 11 -41 12 46 1 91 1 92 -24 97 -14 2 -40 1 -58 -2 l-32 -7 0 -147 c0
-81 3 -147 8 -147 11 0 9 -38 -3 -45 -5 -3 -10 -40 -10 -81 0 -43 4 -74 10
-74 13 0 13 -37 0 -45 -6 -4 -9 -69 -8 -168 1 -107 3 -145 8 -112 9 65 10 46
19 -220 4 -115 10 -217 15 -226 4 -10 1 -22 -8 -32 -8 -8 -12 -17 -9 -20 3 -4
-2 -18 -11 -31 -9 -14 -16 -32 -16 -41 0 -9 -4 -13 -10 -10 -5 3 -10 -1 -10
-9 0 -9 -18 -61 -40 -116 -22 -55 -40 -112 -40 -125 0 -14 -4 -25 -8 -25 -5 0
-9 -7 -9 -15 0 -8 -6 -33 -13 -55 -10 -30 -22 -45 -47 -56 -34 -17 -42 -16
-83 13 l-25 18 22 -29 c13 -15 20 -33 16 -39 -4 -6 6 -8 26 -5 37 5 28 -8 -9
-15 -16 -3 -9 -5 19 -6 41 -1 43 0 37 24 -4 15 -2 25 4 25 6 0 8 -4 5 -10 -10
-16 5 -12 52 15 42 25 62 46 24 25 -37 -19 -42 -10 -15 25 31 41 44 44 45 13
1 -22 1 -22 9 2 l8 25 1 -26 c1 -15 -7 -37 -17 -50 -11 -13 -21 -34 -24 -46
-6 -21 -3 -23 38 -23 l44 0 0 -205 c0 -198 -1 -205 -20 -205 -11 0 -20 -4 -20
-10 0 -5 -15 -10 -32 -11 -18 0 -27 -3 -20 -6 6 -2 10 -9 6 -14 -3 -5 1 -9 8
-9 9 0 9 -3 -2 -10 -13 -8 -12 -10 3 -10 30 0 15 -34 -18 -41 -21 -5 -12 -7
33 -8 l62 -1 2 -107 c1 -82 3 -97 8 -63 6 39 7 34 8 -35 1 -49 -2 -75 -7 -66
-15 23 -23 -423 -18 -1069 l4 -615 61 -3 62 -3 0 430 c0 334 -3 431 -12 435
-10 5 -10 7 0 12 9 4 12 121 12 546 -1 297 1 542 3 545 3 2 38 5 78 6 l74 2 6
-60 6 -60 1 52 c1 28 7 55 12 58 6 3 10 0 10 -7 0 -11 2 -11 9 0 4 7 33 15 67
17 42 3 52 2 34 -4 -21 -8 -12 -16 13 -12 9 1 2 -1058 -12 -1656 0 -26 -4 -31
-16 -27 -11 5 -18 0 -22 -15 -3 -11 -9 -19 -13 -16 -5 3 -6 -4 -3 -14 3 -12
11 -17 19 -14 8 3 14 0 14 -6 0 -6 6 -10 13 -9 16 4 22 -65 8 -89 -10 -17 -10
-17 -11 0 0 9 -4 17 -10 17 -5 0 -12 17 -16 38 -7 34 -8 35 -14 12 -6 -24 -7
-24 -14 7 -5 21 -12 30 -21 27 -7 -3 -15 3 -18 13 -3 10 -6 -4 -7 -32 -5 -114
-18 -107 -20 10 -2 161 -8 135 -12 -53 l-3 -152 3283 0 3282 0 0 2880 0 2880
-1200 0 c-697 0 -1200 -4 -1200 -10 0 -20 63 -70 88 -70 l27 0 -30 -16 c-40
-21 -41 -22 -19 -39 22 -17 54 -20 54 -5 0 6 -9 10 -20 10 -11 0 -20 5 -20 10
0 14 16 13 40 -2 16 -10 25 -9 49 5 35 21 71 22 71 3 0 -16 -41 -29 -64 -20
-9 3 -16 1 -16 -5 0 -6 -6 -11 -13 -11 -7 0 -18 -9 -25 -21 -11 -16 -16 -18
-28 -9 -11 10 -14 10 -14 0 0 -7 -8 -19 -17 -26 -17 -13 -17 -13 0 -14 27 0
20 -15 -15 -28 -51 -19 -24 -26 34 -7 29 9 61 20 70 26 10 5 26 9 37 9 11 0
27 7 35 16 9 8 16 11 16 5 0 -6 11 -6 32 0 44 12 68 11 68 -3 0 -6 -3 -9 -6
-5 -3 3 -15 -3 -27 -14 -11 -10 -34 -19 -50 -19 -25 0 -27 -3 -21 -22 6 -21 5
-21 -10 -9 -13 11 -22 11 -39 3 -12 -6 -37 -14 -55 -17 -18 -4 -41 -15 -50
-25 -15 -15 -50 -28 -89 -32 -7 -1 -14 -7 -17 -15 -3 -7 -14 -13 -25 -13 -11
0 -22 -4 -25 -9 -4 -5 -24 -12 -46 -16 -22 -4 -40 -10 -40 -14 0 -3 -22 -15
-50 -26 l-50 -19 43 -12 c94 -26 137 -36 235 -55 57 -10 108 -21 113 -25 5 -3
37 -10 71 -14 87 -13 99 -30 20 -30 -48 0 -62 -3 -62 -15 0 -11 -11 -15 -40
-15 -22 0 -40 -4 -40 -10 0 -5 -8 -10 -18 -10 -10 0 -23 -5 -30 -12 -7 -7 -31
-13 -55 -14 -23 -1 -73 -7 -110 -14 -38 -6 -85 -10 -105 -8 -32 3 -37 6 -34
27 2 23 2 23 -15 4 -16 -18 -26 -19 -98 -12 -215 21 -273 28 -310 37 -76 20
-185 13 -185 -10 0 -6 -11 -23 -25 -39 -13 -16 -22 -36 -19 -43 8 -21 -12 -28
-30 -10 -13 12 -16 43 -17 162 -1 81 -5 194 -9 252 l-7 105 -2 -130 c-2 -71
-2 -150 -2 -175 1 -25 -3 -58 -8 -75 -8 -25 -10 -18 -12 45 -2 69 -3 71 -9 30
l-7 -45 -1 48 c-1 26 -6 47 -11 47 -15 0 -23 -18 -11 -25 5 -3 10 -16 10 -28
l-1 -22 -12 23 c-16 27 -27 19 -27 -20 0 -39 -27 -91 -43 -81 -7 4 -21 6 -32
5 -29 -3 -45 10 -47 41 -2 21 -9 29 -28 33 -14 3 -34 7 -45 10 -11 3 -45 9
-75 14 -181 27 -360 59 -369 64 -5 4 -25 0 -43 -8 -18 -8 -60 -22 -93 -31 -33
-9 -89 -25 -125 -36 -78 -23 -123 -24 -139 -5 -10 12 -6 18 26 35 21 11 31 20
21 21 -11 0 -15 6 -11 20 7 27 -18 35 -69 22 -35 -9 -44 -8 -55 6 -7 9 -13 29
-13 43 0 23 -5 28 -37 33 -21 4 -69 13 -108 21 -102 21 -235 45 -358 65 -59 9
-110 19 -113 23 -5 4 -26 -3 -119 -43 -11 -5 -37 -11 -57 -13 -20 -3 -54 -14
-75 -24 -42 -19 -144 -25 -150 -7 -2 5 16 21 39 34 37 22 40 25 21 28 -13 2
-23 10 -23 18 0 10 -12 14 -40 14 -25 0 -40 5 -40 13 0 6 -5 4 -11 -5 -11 -19
-39 -25 -39 -8 0 6 -7 10 -15 10 -8 0 -15 7 -15 15 0 8 -5 25 -11 39 -10 20
-21 26 -58 31 -25 3 -95 14 -156 24 -60 11 -144 24 -185 31 -41 6 -106 18
-144 26 -89 18 -90 18 -106 -11 -11 -20 -21 -25 -55 -25 -51 0 -85 28 -85 70
l0 30 -85 0 -85 0 0 -29 c0 -49 -19 -86 -55 -105 -30 -17 -39 -17 -79 -5 -35
10 -43 16 -34 26 6 7 15 13 21 13 6 0 21 9 33 21 12 11 37 28 55 38 18 10 35
23 37 29 3 9 -422 12 -1742 12 l-1746 0 0 -183z m9015 113 c3 -5 1 -10 -4 -10
-6 0 -11 5 -11 10 0 6 2 10 4 10 3 0 8 -4 11 -10z m-505 -166 c0 -2 -17 -4
-37 -3 -33 1 -35 2 -13 8 23 7 50 4 50 -5z m-4750 -24 c0 -29 -17 -40 -34 -22
-4 4 -13 7 -19 7 -20 0 -20 33 0 38 44 11 53 8 53 -23z m4350 -20 c0 13 1 13
10 0 7 -11 10 -11 10 -2 0 7 11 2 26 -13 14 -14 30 -23 35 -20 12 8 49 -4 49
-16 0 -13 -47 -11 -56 2 -4 8 -29 10 -73 6 -36 -2 -74 -2 -84 2 -17 6 -17 8
-3 20 8 7 24 10 36 6 14 -4 22 -1 26 10 6 13 8 14 15 3 7 -10 9 -10 9 2z m550
1 c0 -12 -20 -25 -27 -18 -7 7 6 27 18 27 5 0 9 -4 9 -9z m-676 -39 c3 -5 -8
-6 -25 -4 -16 2 -29 6 -29 8 0 8 49 4 54 -4z m-4589 -38 c124 -11 125 -11 125
-49 0 -29 -4 -36 -25 -41 -16 -4 -34 0 -50 10 -13 9 -37 16 -52 16 -15 0 -50
9 -78 19 -84 32 -120 41 -158 41 -20 0 -37 5 -37 11 0 11 109 8 275 -7z m212
-26 c-3 -7 -5 -2 -5 12 0 14 2 19 5 13 2 -7 2 -19 0 -25z m40 0 c-3 -7 -5 -2
-5 12 0 14 2 19 5 13 2 -7 2 -19 0 -25z m-3314 5 c-7 -2 -21 -2 -30 0 -10 3
-4 5 12 5 17 0 24 -2 18 -5z m467 -3 c0 -5 -12 -10 -27 -9 -25 0 -26 1 -8 9
27 12 35 12 35 0z m-145 -19 c14 -6 5 -9 -30 -9 -35 -1 -46 1 -35 8 18 11 37
12 65 1z m357 -12 c44 -6 76 -16 75 -22 -1 -6 12 -13 28 -17 17 -4 44 -14 60
-24 28 -16 28 -17 5 -12 -37 8 -92 14 -225 27 -66 7 -137 18 -159 25 -21 8
-48 14 -60 13 -19 -1 -18 -2 4 -9 20 -7 21 -8 5 -9 -11 0 -28 6 -39 14 -17 13
-15 14 20 17 101 8 216 7 286 -3z m2115 -164 c70 -9 188 -23 261 -33 l133 -17
27 -50 c15 -27 30 -52 35 -53 4 -2 5 -8 1 -13 -3 -5 2 -9 10 -9 9 0 16 -4 16
-9 0 -4 15 -13 33 -19 47 -16 16 -14 -508 48 -93 11 -199 26 -235 33 -59 13
-62 14 -32 20 24 5 32 12 32 28 0 15 5 19 15 15 8 -3 15 -2 15 2 0 17 41 72
54 72 8 0 72 -7 143 -15z m5363 5 c-8 -5 -24 -10 -35 -10 -17 0 -17 2 -5 10 8
5 24 10 35 10 17 0 17 -2 5 -10z m517 -22 c-3 -7 -5 -2 -5 12 0 14 2 19 5 13
2 -7 2 -19 0 -25z m-2190 -10 c-3 -8 -6 -5 -6 6 -1 11 2 17 5 13 3 -3 4 -12 1
-19z m1429 8 c34 -7 75 -11 93 -8 17 2 31 0 31 -6 0 -9 73 -27 98 -23 6 1 12
-2 12 -7 0 -5 16 -17 35 -28 30 -16 37 -17 44 -5 5 8 16 11 26 8 19 -8 11 -27
-11 -27 -8 0 -14 -5 -14 -10 0 -6 -15 -8 -40 -4 -25 4 -40 3 -40 -4 0 -6 6
-12 13 -15 6 -2 3 -3 -8 -1 -11 2 -34 4 -52 4 -29 0 -32 3 -36 38 -3 24 -4 21
-2 -10 2 -46 1 -48 -31 -60 -19 -7 -34 -16 -34 -21 0 -4 -4 -6 -9 -2 -5 3 -29
-1 -53 -10 -46 -16 -108 -20 -108 -7 0 4 -15 9 -32 10 -72 5 -177 25 -172 33
3 5 -4 9 -15 9 -12 0 -21 -4 -21 -9 0 -5 -18 -7 -40 -4 -38 5 -173 -20 -195
-37 -5 -4 -32 -10 -60 -14 -27 -3 -63 -9 -79 -13 -20 -4 -27 -3 -22 6 4 6 20
11 36 11 16 0 47 6 67 14 51 18 129 41 238 67 50 12 122 32 162 46 39 13 95
26 125 30 88 10 125 43 48 43 -22 0 -40 5 -40 10 0 13 11 12 86 -4z m-6556
-26 c-8 -5 -19 -10 -25 -10 -5 0 -3 5 5 10 8 5 20 10 25 10 6 0 3 -5 -5 -10z
m95 0 c-3 -5 -16 -10 -28 -10 -18 0 -19 2 -7 10 20 13 43 13 35 0z m114 -4
c-2 -2 -26 -6 -54 -9 -34 -4 -42 -3 -25 3 25 8 87 13 79 6z m67 -15 c-4 -5 3
-7 14 -4 15 4 20 0 20 -16 0 -11 -4 -21 -9 -21 -20 0 -41 13 -41 25 0 8 -8 16
-17 18 -11 3 -7 5 10 6 16 0 26 -3 23 -8z m171 -18 c6 -18 -68 -17 -91 0 -16
12 -12 14 34 13 33 -1 55 -6 57 -13z m216 -10 c-13 -2 -33 -2 -45 0 -13 2 -3
4 22 4 25 0 35 -2 23 -4z m151 -15 c-5 -7 12 -8 51 -3 44 5 56 4 50 -6 -6 -9
0 -11 23 -6 39 8 62 0 55 -19 -4 -10 -10 -11 -24 -3 -13 6 -19 6 -19 -1 0 -14
-47 -12 -132 6 -40 9 -102 16 -137 15 -71 0 -76 4 -16 13 22 4 41 10 42 14 2
4 28 5 58 4 35 -3 53 -8 49 -14z m213 16 c-3 -3 -12 -4 -19 -1 -8 3 -5 6 6 6
11 1 17 -2 13 -5z m1238 -14 c50 -6 113 -15 140 -20 28 -5 91 -14 140 -20 206
-25 518 -70 523 -74 2 -2 -49 -3 -112 -3 -63 1 -110 4 -105 7 5 4 -69 16 -164
28 -232 30 -228 30 -342 46 -172 25 -198 31 -203 45 -3 9 2 11 14 8 11 -3 60
-11 109 -17z m-145 -25 c0 -8 -9 -15 -20 -15 -13 0 -18 5 -14 15 4 8 12 15 20
15 8 0 14 -7 14 -15z m2996 -12 c-10 -10 -19 5 -10 18 6 11 8 11 12 0 2 -7 1
-15 -2 -18z m35 -48 c2 -22 0 -45 -4 -51 -9 -15 -47 -10 -58 7 -13 21 -11 29
6 23 11 -5 15 1 16 22 2 27 2 27 9 -6 l7 -35 3 35 c2 19 3 44 2 55 -1 16 0 17
7 5 5 -8 10 -33 12 -55z m-5361 51 c0 -3 -4 -8 -10 -11 -5 -3 -10 -1 -10 4 0
6 5 11 10 11 6 0 10 -2 10 -4z m1404 -5 c4 -5 -3 -7 -14 -4 -23 6 -26 13 -6
13 8 0 17 -4 20 -9z m-1169 -21 c316 -34 398 -46 397 -55 -1 -15 40 -28 48
-14 4 6 16 9 26 7 14 -2 20 -13 22 -42 l3 -38 -43 5 c-24 3 -135 15 -248 27
-188 19 -332 36 -370 45 -8 2 -36 4 -62 4 -44 1 -48 3 -48 25 0 25 20 39 45
30 9 -4 18 1 21 11 6 14 16 16 58 12 28 -3 96 -11 151 -17z m1972 -37 c-3 -10
-5 -2 -5 17 0 19 2 27 5 18 2 -10 2 -26 0 -35z m2393 37 c0 -5 -6 -10 -14 -10
-8 0 -18 5 -21 10 -3 6 3 10 14 10 12 0 21 -4 21 -10z m-643 -66 c-3 -3 -12
-4 -19 -1 -8 3 -5 6 6 6 11 1 17 -2 13 -5z m2960 0 c-3 -3 -12 -4 -19 -1 -8 3
-5 6 6 6 11 1 17 -2 13 -5z m-1467 -24 c0 -5 -12 -10 -27 -10 -22 0 -25 2 -13
10 20 13 40 13 40 0z m-4284 -16 c19 -5 24 -13 24 -40 0 -19 -3 -34 -7 -35
-42 -5 -98 -2 -285 16 -56 5 -62 13 -34 41 20 21 31 24 59 19 23 -5 37 -3 42
5 6 9 31 11 93 6 47 -3 95 -9 108 -12z m2184 -54 c12 -8 11 -10 -7 -10 -13 0
-23 5 -23 10 0 13 11 13 30 0z m3567 -6 c-3 -3 -12 -4 -19 -1 -8 3 -5 6 6 6
11 1 17 -2 13 -5z m-50 -10 c-3 -3 -12 -4 -19 -1 -8 3 -5 6 6 6 11 1 17 -2 13
-5z m-6720 -40 c-3 -3 -12 -4 -19 -1 -8 3 -5 6 6 6 11 1 17 -2 13 -5z m208 -4
c12 -6 -9 -7 -55 -3 -41 3 -77 7 -79 9 -9 8 115 2 134 -6z m-245 -20 c8 -5 11
-10 5 -10 -5 0 -17 5 -25 10 -8 5 -10 10 -5 10 6 0 17 -5 25 -10z m170 -1 c0
-8 13 -9 40 -5 22 3 40 2 40 -3 0 -12 -53 -19 -111 -13 -51 5 -65 18 -26 25
42 8 57 7 57 -4z m758 -14 c24 -5 42 -13 42 -21 0 -9 10 -11 34 -7 56 9 72
-16 71 -112 l0 -78 -70 2 c-82 2 -303 20 -325 26 -8 2 -134 14 -280 25 -146
11 -272 23 -280 25 -19 5 -159 17 -221 19 l-46 1 0 54 0 53 136 -7 c75 -4 192
-14 261 -22 69 -8 183 -18 253 -23 70 -5 132 -12 137 -15 6 -3 10 -3 10 2 0
15 -54 33 -99 33 -38 1 -43 2 -27 12 12 6 54 9 112 6 52 -3 94 -1 94 3 0 5 18
9 41 9 29 0 40 4 36 13 -5 14 43 15 121 2z m5082 -20 c107 -15 211 -30 230
-35 19 -5 62 -12 95 -15 33 -3 74 -10 90 -14 17 -5 63 -15 104 -22 49 -8 67
-15 55 -20 -22 -7 -243 -2 -294 7 -19 4 -42 8 -50 10 -8 2 -31 6 -50 10 -19 4
-48 6 -64 5 -16 -2 -32 2 -35 7 -3 6 -38 15 -76 21 -103 16 -114 18 -182 38
-64 18 -82 33 -40 33 12 0 110 -11 217 -25z m1597 19 c-3 -3 -12 -4 -19 -1 -8
3 -5 6 6 6 11 1 17 -2 13 -5z m-7253 -20 c5 -12 2 -15 -10 -10 -8 3 -21 6 -27
6 -7 0 -6 4 3 10 21 14 27 12 34 -6z m716 -2 c0 -10 -4 -12 -12 -4 -7 5 -22
12 -33 15 -11 3 -6 5 13 4 20 -1 32 -6 32 -15z m3999 -35 c17 -7 29 -16 26
-19 -3 -3 5 -8 19 -10 18 -4 23 -1 19 10 -10 24 30 9 43 -17 7 -13 18 -28 26
-32 10 -7 8 -9 -7 -10 -14 0 -16 -2 -5 -6 23 -9 43 -33 35 -41 -4 -4 -10 -1
-12 6 -3 8 -30 12 -84 12 -46 0 -79 4 -79 10 0 6 11 10 25 10 30 0 35 29 5 37
-11 3 -18 9 -15 13 2 4 -9 7 -25 8 -44 1 -70 11 -70 28 0 18 56 19 99 1z
m-446 -14 c-7 -2 -19 -2 -25 0 -7 3 -2 5 12 5 14 0 19 -2 13 -5z m792 -12 c33
-6 116 -18 185 -26 69 -9 139 -20 155 -25 17 -5 64 -12 105 -15 41 -4 120 -15
175 -25 55 -10 143 -21 196 -24 53 -3 116 -10 140 -15 95 -23 288 -51 342 -51
119 0 613 -62 650 -81 20 -11 20 -12 1 -27 -16 -12 -16 -14 -2 -9 11 4 28 -3
45 -18 26 -23 27 -24 7 -25 -43 0 -300 31 -360 44 -33 7 -83 12 -112 11 -31
-1 -50 2 -49 9 3 14 -82 36 -170 43 -40 3 -73 9 -73 13 0 4 -32 8 -71 9 -46 1
-68 -2 -64 -9 4 -6 -8 -10 -29 -10 -19 0 -37 4 -40 8 -2 4 -35 9 -73 10 -104
5 -118 6 -124 15 -10 14 -132 28 -186 21 -36 -4 -53 -3 -53 5 0 6 7 11 15 11
8 0 15 5 15 10 0 6 -11 10 -25 10 -14 0 -25 5 -25 10 0 11 -43 14 -53 3 -4 -3
-35 -5 -68 -4 -42 2 -59 -1 -54 -8 3 -6 13 -11 21 -11 8 0 14 -4 14 -8 0 -9
-133 -4 -177 8 -19 5 -35 5 -39 -1 -3 -5 2 -9 10 -9 14 0 22 -26 17 -54 -1 -6
0 -20 4 -33 4 -17 12 -23 35 -23 16 0 102 -9 192 -19 384 -46 1165 -131 1211
-131 4 0 7 20 7 45 l0 45 43 0 c23 0 94 -8 159 -17 137 -20 128 -5 128 -198
l0 -122 -25 5 c-22 4 -25 1 -25 -28 0 -21 -4 -30 -12 -28 -9 3 -14 39 -16 123
-3 123 -7 135 -47 135 -20 0 -20 -7 -20 -512 0 -282 -2 -880 -3 -1328 -2 -448
-1 -828 1 -845 5 -27 9 -423 8 -641 l-1 -80 -110 -19 c-61 -10 -113 -15 -116
-12 -14 14 -24 664 -30 1869 l-7 1277 -51 5 c-109 11 -430 38 -626 51 -281 20
-690 54 -717 60 l-23 5 1 -287 c2 -409 10 -568 29 -568 8 0 16 -8 18 -19 4
-19 -6 -19 -70 0 -10 3 -18 1 -18 -5 0 -6 -7 -11 -15 -11 -8 0 -15 7 -15 15 0
16 -35 20 -64 9 -20 -8 -21 -24 -2 -24 34 0 37 -26 36 -255 0 -157 3 -232 11
-241 7 -8 7 -14 1 -14 -19 0 -31 27 -56 120 -46 179 -67 255 -81 295 -22 62
-19 37 11 -111 2 -14 -2 -24 -12 -28 -12 -4 -15 -2 -10 9 3 8 1 15 -4 15 -5 0
-14 19 -20 43 -22 85 -22 85 -66 -58 -14 -46 -19 -54 -22 -36 -9 58 53 254 87
275 8 5 11 129 9 439 0 238 -3 418 -5 401 -4 -30 -6 -32 -43 -30 l-40 1 0 192
0 192 34 -6 c33 -5 34 -4 38 33 5 40 4 42 -59 123 -26 33 -28 41 -10 41 7 0
27 -19 45 -42 l32 -42 1 30 c1 16 1 34 0 40 -1 7 29 7 96 -2 54 -7 105 -13
113 -13 25 1 -93 28 -123 29 -16 0 -26 4 -23 8 3 5 -18 10 -47 11 -29 1 -56 6
-62 12 -6 6 9 7 40 5 37 -4 54 -1 73 14 23 19 24 20 4 20 -11 0 -32 -4 -46
-10 -16 -6 -27 -6 -31 0 -4 6 6 10 22 10 l28 1 -26 14 c-35 19 -44 21 -46 12
-2 -4 -7 -13 -13 -20 -6 -6 -16 -20 -23 -30 -11 -16 -13 -11 -15 36 l-2 55 37
-3 c21 -2 65 -8 98 -14z m-155 -37 c0 -19 0 -37 1 -41 0 -4 -3 -9 -8 -10 -4
-2 -9 11 -10 28 -1 17 -10 37 -20 44 -15 11 -14 13 10 13 24 0 27 -4 27 -34z
m-520 11 c58 -8 121 -16 140 -19 19 -2 -1 -2 -45 0 -87 4 -204 19 -213 28 -8
8 0 8 118 -9z m-143 -11 c-3 -3 -12 -4 -19 -1 -8 3 -5 6 6 6 11 1 17 -2 13 -5z
m2053 -13 c0 -5 -9 -7 -20 -4 -11 3 -20 7 -20 9 0 2 9 4 20 4 11 0 20 -4 20
-9z m225 -10 c146 -12 175 -15 295 -35 63 -10 101 -11 143 -4 52 9 57 12 57
36 0 14 3 23 6 19 12 -11 -8 -87 -24 -95 -10 -5 -91 -5 -182 -1 -164 6 -308
29 -358 55 -15 8 -38 14 -52 15 -14 0 -41 7 -60 15 l-35 14 40 -5 c22 -2 99
-9 170 -14z m-1857 -1 c10 0 12 -3 7 -9 -6 -5 -25 -7 -44 -4 -23 4 -29 8 -20
14 8 5 20 7 27 4 8 -3 21 -5 30 -5z m2602 -20 c12 -7 8 -11 -18 -16 -18 -4
-35 -11 -38 -15 -10 -17 -34 -9 -34 10 0 27 59 41 90 21z m-2356 -56 c7 -18 8
-1350 1 -1343 -2 3 -5 202 -5 442 -1 266 -5 437 -11 438 -5 1 -17 2 -26 3 -26
1 -53 103 -53 196 1 41 -2 94 -6 116 -6 37 -4 44 18 58 14 9 33 37 44 61 19
48 28 55 38 29z m-5094 -14 c74 -5 198 -12 275 -15 77 -4 160 -11 184 -16 24
-5 77 -10 117 -11 41 0 72 -3 70 -7 -2 -3 56 -6 130 -6 113 0 134 -2 134 -15
0 -8 -4 -19 -8 -25 -8 -11 -182 -8 -182 3 0 4 -35 8 -77 10 -43 1 -80 7 -83
12 -3 5 -44 12 -90 15 -136 11 -200 13 -196 6 2 -3 -24 -6 -59 -6 -44 0 -61 3
-54 11 5 7 4 11 -4 11 -6 1 -81 5 -164 9 -118 5 -153 10 -153 21 0 15 -9 15
160 3z m5030 -30 c0 -5 -9 -10 -20 -10 -11 0 -20 5 -20 10 0 6 9 10 20 10 11
0 20 -4 20 -10z m-3923 -132 c-3 -7 -5 -2 -5 12 0 14 2 19 5 13 2 -7 2 -19 0
-25z m5823 -58 c0 -36 -2 -40 -25 -38 -30 3 -34 18 -4 18 18 0 20 4 14 30 -4
19 -3 30 4 30 6 0 11 -18 11 -40z m-7396 -51 c9 -89 7 -302 -3 -317 -16 -26
-22 36 -20 209 1 172 11 218 23 108z m7376 51 c0 -5 -8 -10 -17 -10 -15 0 -16
2 -3 10 19 12 20 12 20 0z m-4345 -40 c8 -13 -5 -13 -25 0 -13 8 -13 10 2 10
9 0 20 -4 23 -10z m445 -10 c11 -7 3 -10 -30 -10 -33 0 -41 3 -30 10 8 5 22
10 30 10 8 0 22 -5 30 -10z m-3543 -77 c-2 -16 -4 -3 -4 27 0 30 2 43 4 28 2
-16 2 -40 0 -55z m3341 60 c-10 -2 -28 -2 -40 0 -13 2 -5 4 17 4 22 1 32 -1
23 -4z m279 1 c-3 -3 -12 -4 -19 -1 -8 3 -5 6 6 6 11 1 17 -2 13 -5z m1305
-172 c-8 -6 -10 -24 -6 -63 4 -30 7 -88 9 -129 1 -41 3 -77 4 -80 7 -14 8 -40
3 -40 -11 0 -12 -92 -1 -112 5 -10 16 -18 24 -18 11 0 15 -13 15 -51 0 -31 -4
-48 -10 -44 -6 4 -10 -10 -10 -34 0 -22 -5 -42 -12 -44 -10 -4 -9 -8 2 -16 10
-7 11 -11 3 -11 -8 0 -13 -14 -13 -35 0 -24 5 -35 15 -35 9 0 15 -10 15 -26 0
-14 5 -34 10 -45 8 -15 7 -21 -5 -25 -8 -3 -12 -10 -9 -15 3 -5 -3 -9 -13 -9
-15 0 -16 -2 -3 -10 12 -8 9 -10 -11 -10 -20 0 -28 6 -32 23 -9 36 -8 338 2
397 5 33 5 56 0 58 -10 4 -12 194 -3 305 6 61 10 77 23 77 12 0 13 -2 3 -8z
m-4392 -103 c91 -6 194 -12 229 -13 36 -1 66 -6 68 -12 2 -5 25 -7 52 -6 27 2
80 -1 116 -7 48 -7 108 -7 206 1 104 9 145 9 161 0 13 -6 37 -13 53 -14 30 -3
30 -4 35 -73 3 -38 2 -111 -4 -162 -7 -75 -12 -92 -27 -96 -10 -3 -18 -2 -17
2 0 3 -5 21 -12 39 -11 31 -14 32 -65 32 -30 0 -57 -4 -60 -10 -6 -10 -63 -2
-82 12 -7 5 -14 5 -18 -2 -9 -15 -56 -12 -90 6 -41 22 -222 26 -234 5 -5 -8
-16 -11 -24 -8 -11 4 -13 0 -9 -16 6 -26 -6 -17 -22 15 -11 22 -17 23 -94 20
-45 -1 -121 4 -169 12 -139 24 -240 31 -257 17 -8 -7 -25 -9 -40 -5 l-26 6 0
133 0 134 38 4 c20 2 57 3 82 1 25 -2 119 -9 210 -15z m7267 -697 c-1 -130 -2
-23 -2 238 0 261 1 368 2 237 2 -130 2 -344 0 -475z m-7740 626 c-3 -8 -6 -5
-6 6 -1 11 2 17 5 13 3 -3 4 -12 1 -19z m7220 6 c-3 -3 -12 -4 -19 -1 -8 3 -5
6 6 6 11 1 17 -2 13 -5z m-7211 -140 c2 -108 3 -290 2 -324 -1 -14 0 -47 2
-75 2 -27 1 -57 -1 -65 -3 -11 5 -16 29 -18 25 -3 32 0 32 15 1 17 1 17 14 1
7 -10 24 -18 37 -19 15 0 19 -3 9 -6 -8 -3 -18 -12 -23 -19 -4 -7 -15 -10 -24
-7 -12 5 -14 3 -8 -8 5 -8 1 -7 -12 4 -21 18 -69 24 -58 7 3 -5 0 -10 -7 -11
-10 0 -10 -2 0 -6 13 -5 7 -23 -8 -23 -4 0 -8 146 -7 325 1 224 4 324 11 322
7 -2 12 -40 12 -93z m5472 67 c10 -6 10 -10 -2 -20 -15 -13 -86 -5 -86 9 0 17
67 25 88 11z m-531 -7 c-3 -3 -12 -4 -19 -1 -8 3 -5 6 6 6 11 1 17 -2 13 -5z
m1034 -76 c9 -126 7 -148 -12 -148 -16 0 -19 7 -19 43 0 31 3 38 10 27 5 -8
10 -12 10 -7 0 4 -5 16 -11 26 -13 20 -5 71 11 71 6 0 10 -6 11 -12z m-5437
-158 c139 -7 182 -12 194 -24 9 -9 13 -18 9 -22 -3 -3 -141 -3 -306 1 l-301 8
0 23 c0 24 1 24 113 24 61 0 193 -5 291 -10z m716 -24 l125 -3 3 -28 4 -27
-64 5 c-35 4 -148 9 -253 12 -104 3 -218 8 -253 11 -63 6 -63 6 -46 26 17 18
27 19 189 13 93 -3 226 -7 295 -9z m2797 8 c-3 -3 -12 -4 -19 -1 -8 3 -5 6 6
6 11 1 17 -2 13 -5z m1933 -189 c0 -158 -2 -185 -15 -185 -12 0 -15 17 -17 83
-2 108 2 269 8 279 19 30 24 -11 24 -177z m-4610 95 c0 -5 -4 -10 -9 -10 -6 0
-13 5 -16 10 -3 6 1 10 9 10 9 0 16 -4 16 -10z m3507 -102 c-3 -8 -6 -5 -6 6
-1 11 2 17 5 13 3 -3 4 -12 1 -19z m-1071 -25 c-7 -7 -26 7 -26 19 0 6 6 6 15
-2 9 -7 13 -15 11 -17z m1539 17 c8 -13 -25 -13 -45 0 -12 8 -9 10 12 10 15 0
30 -4 33 -10z m-1605 -50 c0 -5 -4 -10 -10 -10 -5 0 -10 5 -10 10 0 6 5 10 10
10 6 0 10 -4 10 -10z m-56 -76 c-6 -42 -8 -45 -16 -25 -5 16 -4 34 4 52 17 38
21 30 12 -27z m-3102 35 c3 -9 10 -9 27 0 12 7 28 11 36 9 19 -4 -39 -98 -60
-98 -16 0 -18 7 -17 53 l1 29 -32 -26 c-18 -13 -31 -30 -29 -36 1 -6 -2 -9 -7
-6 -5 4 -14 -2 -20 -11 -14 -27 -25 -8 -10 19 11 22 11 22 -7 7 -35 -29 -47
-34 -36 -13 16 31 50 56 76 59 13 2 33 8 43 14 23 14 30 14 35 0z m1014 -9 c8
0 14 -9 14 -20 0 -21 -8 -24 -35 -14 -13 6 -14 9 -3 16 10 8 10 11 0 15 -6 2
-9 10 -5 16 5 8 8 8 11 -1 2 -7 10 -12 18 -12z m-53 1 c4 0 7 -8 7 -16 0 -11
-11 -15 -39 -15 -47 0 -71 8 -71 24 0 10 63 14 103 7z m-608 -31 c23 -19 20
-43 -4 -30 -16 8 -20 6 -23 -7 -3 -15 -10 -11 -42 18 l-39 36 46 -2 c26 -1 53
-8 62 -15z m380 -16 c17 -42 19 -64 5 -64 -5 0 -10 12 -10 26 0 14 -7 32 -15
41 -8 8 -13 19 -10 24 10 15 14 11 30 -27z m65 21 c16 -20 1 -39 -26 -33 -27
5 -32 48 -6 48 11 0 25 -7 32 -15z m869 -55 c-33 -115 -53 -177 -61 -186 -4
-6 -6 -18 -3 -26 3 -8 -1 -21 -10 -28 -8 -7 -15 -20 -15 -30 0 -10 -7 -23 -15
-30 -8 -7 -15 -18 -15 -26 0 -15 -30 -47 -37 -40 -10 10 47 178 142 421 7 19
8 18 15 -5 3 -14 3 -36 -1 -50z m411 49 c0 -6 -4 -7 -10 -4 -5 3 -10 11 -10
16 0 6 5 7 10 4 6 -3 10 -11 10 -16z m900 -14 c0 -8 -7 -15 -15 -15 -16 0 -20
12 -8 23 11 12 23 8 23 -8z m-2323 -11 c-3 -3 -12 -4 -19 -1 -8 3 -5 6 6 6 11
1 17 -2 13 -5z m1375 -6 c-8 -8 -17 -8 -34 0 -22 10 -21 11 12 11 26 1 31 -2
22 -11z m2415 -1 c13 -2 26 -7 30 -12 5 -4 2 -5 -4 -1 -15 9 -17 -6 -3 -20 10
-10 19 -213 20 -432 l0 -114 30 -11 c35 -13 40 -37 8 -36 -13 0 -56 -3 -96 -5
-66 -5 -73 -4 -70 12 2 9 12 17 23 17 18 0 21 9 26 110 12 209 10 328 -6 359
-17 32 -19 50 -6 42 23 -15 -6 40 -38 71 l-36 35 50 -6 c28 -3 60 -8 72 -9z
m103 -1 c0 -17 -20 -33 -41 -33 -11 0 -16 8 -15 24 1 18 7 23 29 23 16 0 27
-5 27 -14z m-5130 -21 c-6 -7 -8 -29 -6 -48 3 -23 -1 -40 -10 -48 -12 -10 -14
-4 -14 35 0 51 15 90 31 80 7 -4 6 -10 -1 -19z m3075 15 c3 -5 -1 -10 -10 -10
-9 0 -13 5 -10 10 3 6 8 10 10 10 2 0 7 -4 10 -10z m2171 3 c-10 -10 -46 -11
-46 -1 0 4 12 8 27 8 14 0 23 -3 19 -7z m-3656 -18 c-3 -5 -12 -9 -21 -8 -14
2 -15 -12 -13 -100 1 -56 2 -104 3 -106 1 -2 8 2 16 9 18 15 28 9 20 -13 -6
-14 -34 -27 -60 -27 -6 0 -10 50 -10 130 l0 131 35 -3 c19 -2 33 -7 30 -13z
m1070 6 c0 -11 -31 -24 -39 -16 -3 3 1 10 9 15 19 12 30 12 30 1z m2673 -5 c6
-15 -12 -39 -39 -54 -21 -11 -21 -10 -12 26 9 38 41 55 51 28z m-2603 -6 c0
-5 -9 -10 -20 -10 -11 0 -20 5 -20 10 0 6 9 10 20 10 11 0 20 -4 20 -10z m443
3 c-7 -2 -19 -2 -25 0 -7 3 -2 5 12 5 14 0 19 -2 13 -5z m1062 -3 c18 -8 17
-9 -7 -9 -15 -1 -30 4 -33 9 -7 12 12 12 40 0z m-1125 -10 c0 -5 -9 -10 -20
-10 -11 0 -20 5 -20 10 0 6 9 10 20 10 11 0 20 -4 20 -10z m3125 0 c-3 -5 -13
-10 -21 -10 -8 0 -12 5 -9 10 3 6 13 10 21 10 8 0 12 -4 9 -10z m-5779 -17
c-4 -10 1 -34 10 -53 l18 -36 20 20 21 21 3 -34 c2 -19 -2 -45 -9 -57 -6 -13
-9 -32 -6 -43 3 -12 1 -21 -3 -21 -4 0 -6 -9 -3 -20 3 -12 -1 -22 -11 -26 -9
-3 -16 -12 -16 -20 0 -8 -7 -14 -16 -14 -10 0 -14 -6 -10 -15 3 -8 1 -25 -4
-37 -7 -18 -9 -19 -9 -5 -1 9 -5 17 -9 17 -5 0 -8 -38 -7 -85 1 -47 1 -85 0
-85 -1 0 -13 30 -26 68 -34 96 -34 271 0 352 20 50 47 90 59 90 2 0 1 -8 -2
-17z m2741 -25 c-3 -8 -6 -5 -6 6 -1 11 2 17 5 13 3 -3 4 -12 1 -19z m2026 15
c-7 -2 -19 -2 -25 0 -7 3 -2 5 12 5 14 0 19 -2 13 -5z m-3622 -101 c-8 -23 -9
-17 -9 33 0 55 1 57 9 27 7 -22 7 -43 0 -60z m559 67 c0 -6 -4 -7 -10 -4 -5 3
-10 11 -10 16 0 6 5 7 10 4 6 -3 10 -11 10 -16z m3790 -6 c0 -16 3 -95 6 -178
6 -175 -3 -258 -28 -263 -15 -3 -17 4 -14 45 5 65 5 65 16 58 19 -12 11 73 -8
87 -16 11 -18 28 -18 140 1 129 2 131 39 137 4 0 7 -11 7 -26z m-1663 -190
c-2 -37 -3 -9 -3 62 0 72 1 102 3 68 2 -34 2 -93 0 -130z m2099 106 c9 -10 17
-46 20 -90 3 -58 2 -69 -6 -49 -6 14 -19 32 -30 40 -15 12 -19 30 -20 90 -3
94 -1 104 12 60 5 -19 16 -42 24 -51z m-3543 46 c31 -31 357 -521 357 -537 0
-40 -79 55 -213 256 -26 39 -53 78 -61 87 -25 30 -116 183 -116 196 0 17 15
16 33 -2z m667 -16 c7 -11 9 -23 6 -26 -7 -8 -56 25 -56 37 0 19 39 10 50 -11z
m74 5 c4 -11 0 -15 -16 -12 -12 2 -23 9 -26 16 -6 18 35 15 42 -4z m-3424 -10
c0 -22 -16 -24 -32 -5 -15 17 -14 19 8 19 13 0 24 -6 24 -14z m5965 6 c3 -5 1
-10 -4 -10 -6 0 -11 5 -11 10 0 6 2 10 4 10 3 0 8 -4 11 -10z m-4919 -134 c7
-90 -5 -164 -38 -228 -23 -47 -32 -49 -25 -5 3 17 3 27 1 20 -3 -7 -12 -9 -20
-6 -12 4 -12 8 3 19 16 12 16 13 1 8 -13 -4 -15 -1 -11 17 4 15 2 20 -5 15 -6
-4 -11 1 -11 11 0 10 -3 39 -7 66 -6 46 -6 47 25 58 21 8 33 19 37 37 3 15 10
47 16 71 10 39 12 42 20 22 4 -13 11 -60 14 -105z m-1022 67 c-1 -16 -2 -54
-3 -85 0 -32 -5 -58 -11 -58 -11 0 -13 94 -3 153 6 42 20 34 17 -10z m-407 15
c-3 -8 -6 -5 -6 6 -1 11 2 17 5 13 3 -3 4 -12 1 -19z m5094 -5 c-8 -15 -10
-15 -11 -2 0 17 10 32 18 25 2 -3 -1 -13 -7 -23z m-4332 -14 c-9 -5 -15 -4
-18 2 -2 6 3 15 10 20 9 5 15 4 18 -2 2 -6 -3 -15 -10 -20z m2454 -231 c81
-119 143 -219 138 -222 -15 -9 -49 23 -95 91 -25 38 -85 124 -132 193 -78 112
-111 179 -97 194 8 7 21 -11 186 -256z m-717 160 c3 -17 10 -25 16 -22 6 4 8
3 5 -3 -3 -5 -1 -28 5 -51 10 -39 12 -41 25 -25 14 17 14 16 10 -5 -3 -12 -1
-20 4 -16 5 3 10 -9 10 -25 1 -17 3 -35 4 -41 1 -5 3 -16 4 -22 2 -7 6 -4 11
7 6 13 9 -6 9 -60 l1 -81 -35 -13 c-41 -15 -47 -41 -9 -41 14 0 23 4 19 10 -3
6 -2 10 3 10 16 0 22 -39 24 -155 l2 -110 3 95 c5 146 1 140 83 140 l70 0 0
-198 0 -197 -75 -3 -74 -2 -4 73 -3 72 -2 -87 -2 -88 -79 0 c-69 0 -79 2 -77
18 0 10 -5 16 -13 14 -72 -16 -71 -16 -71 12 0 18 -6 26 -17 27 -17 1 -17 2 0
6 15 4 17 21 19 161 0 86 1 163 1 170 -1 6 8 12 18 12 11 0 19 -6 19 -14 0 -7
6 -19 14 -26 8 -6 17 -21 19 -33 2 -12 4 34 5 102 1 121 -4 162 -9 68 -3 -46
-3 -47 -36 -47 l-33 0 0 109 c0 108 0 109 25 115 16 4 25 13 25 26 0 25 17 35
35 20 8 -7 20 -10 27 -7 9 4 7 6 -3 6 -9 1 -20 8 -23 17 -8 21 -8 149 1 157 9
9 41 -41 49 -75z m-1989 32 c-4 -17 -2 -30 3 -30 6 0 10 -4 10 -10 0 -5 -7
-10 -15 -10 -8 0 -22 -17 -32 -37 -15 -34 -17 -36 -21 -15 -5 33 36 132 55
132 3 0 3 -13 0 -30z m4353 26 c0 -3 -4 -8 -10 -11 -5 -3 -10 -1 -10 4 0 6 5
11 10 11 6 0 10 -2 10 -4z m2061 -39 c-13 -13 -15 1 -4 30 7 17 8 17 11 -1 2
-10 -1 -23 -7 -29z m-3171 23 c0 -5 -10 -10 -22 -9 -22 0 -22 1 -3 9 11 5 21
9 23 9 1 1 2 -3 2 -9z m80 -16 c0 -2 -12 -4 -26 -4 -14 0 -23 4 -20 9 6 8 46
4 46 -5z m2096 -32 c19 -13 23 -40 9 -52 -8 -7 -12 -17 -8 -24 4 -6 9 -19 10
-30 3 -14 0 -16 -9 -9 -12 9 -46 10 -145 5 -24 -2 -33 -7 -36 -24 -4 -20 -4
-20 -6 4 0 15 4 30 9 33 6 3 10 15 10 25 0 10 4 21 9 24 5 4 7 -3 4 -14 -5
-19 -1 -20 70 -18 75 1 75 1 66 25 -18 47 -10 74 17 55z m1914 -39 c0 -27 -4
-43 -8 -36 -8 12 -4 83 4 83 2 0 4 -21 4 -47z m-4076 -4 c-2 -4 -12 -5 -20 -2
-13 5 -13 7 -2 14 9 6 6 9 -12 10 -23 0 -23 1 -5 9 21 8 50 -14 39 -31z m1089
2 c6 -24 0 -31 -25 -31 -19 0 -22 8 -12 34 9 22 31 20 37 -3z m-2437 -18 c-10
-10 -19 5 -10 18 6 11 8 11 12 0 2 -7 1 -15 -2 -18z m1171 21 c-3 -3 -12 -4
-19 -1 -8 3 -5 6 6 6 11 1 17 -2 13 -5z m3040 -51 c-3 -10 -5 -4 -5 12 0 17 2
24 5 18 2 -7 2 -21 0 -30z m-5889 -115 c0 -127 2 -143 18 -155 11 -8 30 -23
44 -33 l25 -19 -35 10 c-19 6 -44 13 -55 16 -23 7 -63 40 -76 65 -8 14 -6 16
8 11 17 -7 17 -5 0 21 -26 38 -15 43 16 7 l24 -30 5 107 c5 92 13 142 23 142
1 0 3 -64 3 -142z m1002 133 c0 -18 -18 -21 -30 -6 -10 13 -9 15 9 15 11 0 21
-4 21 -9z m4798 -133 c-3 -40 -4 -41 -20 -24 -22 21 -23 61 -3 100 8 15 16 36
17 45 3 31 9 -80 6 -121z m-3910 90 c-16 -24 -39 -30 -45 -12 -2 6 7 16 19 22
35 17 42 14 26 -10z m882 6 c0 -8 -5 -12 -10 -9 -6 4 -8 11 -5 16 9 14 15 11
15 -7z m-1752 -19 c-3 -3 -9 2 -12 12 -6 14 -5 15 5 6 7 -7 10 -15 7 -18z
m6082 -70 c0 -57 -4 -95 -10 -95 -11 0 -14 148 -4 174 12 30 14 16 14 -79z
m-2840 29 c11 -39 11 -47 -1 -55 -15 -9 -25 8 -39 69 -7 27 -5 32 10 32 12 0
21 -14 30 -46z m790 -46 c0 -45 -2 -79 -4 -77 -8 8 -12 159 -4 159 4 0 8 -37
8 -82z m105 72 c-3 -5 -2 -10 4 -10 10 0 25 -53 19 -67 -8 -20 -27 -8 -33 20
-4 18 -9 40 -11 50 -4 11 0 17 11 17 9 0 13 -4 10 -10z m-5233 -42 c-8 -8 -9
-4 -5 13 4 13 8 18 11 10 2 -7 -1 -18 -6 -23z m6575 -4 c-3 -3 -12 -4 -19 -1
-8 3 -5 6 6 6 11 1 17 -2 13 -5z m-3587 -14 c12 -8 9 -10 -12 -10 -15 0 -30 5
-33 10 -8 13 25 13 45 0z m70 -6 c0 -2 -9 -4 -20 -4 -11 0 -20 4 -20 9 0 5 9
7 20 4 11 -3 20 -7 20 -9z m740 -23 c0 -12 -29 -23 -41 -15 -5 3 -7 10 -4 15
8 12 45 12 45 0z m70 -1 c0 -5 -9 -10 -20 -10 -11 0 -20 5 -20 10 0 6 9 10 20
10 11 0 20 -4 20 -10z m-1880 -15 c0 -8 4 -15 8 -15 11 0 43 -56 35 -64 -10
-9 -25 -7 -19 3 8 13 -4 42 -15 36 -4 -3 -13 3 -18 14 -14 25 -14 41 -1 41 6
0 10 -7 10 -15z m3198 -12 c-10 -2 -26 -2 -35 0 -10 3 -2 5 17 5 19 0 27 -2
18 -5z m342 0 c-1 -18 -21 -38 -39 -39 -11 -1 -18 3 -15 7 3 5 12 9 20 9 8 0
14 7 14 15 0 8 5 15 10 15 6 0 10 -3 10 -7z m-1867 -10 c-7 -2 -21 -2 -30 0
-10 3 -4 5 12 5 17 0 24 -2 18 -5z m697 -3 c0 -5 -4 -10 -9 -10 -6 0 -13 5
-16 10 -3 6 1 10 9 10 9 0 16 -4 16 -10z m-3805 -30 c-3 -5 -11 -10 -16 -10
-6 0 -7 5 -4 10 3 6 11 10 16 10 6 0 7 -4 4 -10z m1670 0 c-3 -5 -10 -10 -16
-10 -5 0 -9 5 -9 10 0 6 7 10 16 10 8 0 12 -4 9 -10z m78 3 c-7 -2 -21 -2 -30
0 -10 3 -4 5 12 5 17 0 24 -2 18 -5z m2993 -2 c-8 -12 78 -20 141 -14 l53 6 0
-162 c0 -187 1 -177 -11 -174 -16 5 -10 -16 9 -26 11 -7 13 -13 6 -18 -6 -5
-10 -19 -8 -33 15 -138 29 -1332 18 -1529 l-7 -118 -96 -21 c-174 -38 -158
-38 -164 0 -3 18 -7 395 -9 838 l-2 805 49 6 c28 3 45 7 38 7 -18 3 -2 43 21
52 15 6 4 9 -41 9 -53 1 -63 4 -68 21 -4 11 -7 88 -8 170 -1 145 -1 150 22
170 23 19 68 29 57 11z m-4829 -20 c-4 -17 -2 -18 14 -8 22 14 36 3 20 -17
-12 -14 -101 -21 -101 -8 0 6 59 50 69 51 2 1 1 -8 -2 -18z m6711 -188 c0
-115 -3 -233 -7 -263 -8 -48 -9 -41 -11 65 -1 66 -4 154 -6 195 -1 41 0 105 3
143 10 130 20 65 21 -140z m-2338 187 c0 -5 -4 -10 -10 -10 -5 0 -10 5 -10 10
0 6 5 10 10 10 6 0 10 -4 10 -10z m709 -203 c2 -86 -1 -108 -11 -105 -10 3
-14 39 -16 134 -3 145 7 214 18 129 4 -27 8 -99 9 -158z m-422 -60 c-1 -45 -3
-5 -3 88 0 94 2 130 3 82 2 -48 2 -125 0 -170z m-5483 193 c-6 -5 -24 21 -24
34 0 6 6 1 14 -10 8 -10 12 -21 10 -24z m666 30 c12 -7 8 -10 -15 -10 -16 0
-37 5 -45 10 -12 7 -8 10 15 10 17 0 37 -5 45 -10z m963 -10 c9 -11 13 -20 7
-20 -5 0 -14 9 -20 20 -6 11 -9 20 -8 20 2 0 11 -9 21 -20z m2677 -10 c0 -5
-5 -10 -11 -10 -5 0 -7 5 -4 10 3 6 8 10 11 10 2 0 4 -4 4 -10z m-3426 -212
c-4 -101 -11 -184 -15 -186 -5 -2 -9 -13 -9 -25 0 -14 -9 -3 -26 32 -16 33
-24 64 -21 80 3 14 1 35 -3 46 -7 15 -9 16 -9 4 -1 -9 -7 -19 -14 -22 -10 -4
-13 2 -9 19 2 13 -1 31 -8 39 -8 10 -10 30 -6 59 7 47 -9 73 -26 42 -5 -9 -14
-14 -20 -10 -6 4 -5 10 3 15 11 7 10 9 -3 9 -11 0 -18 7 -17 18 0 10 3 12 6 5
2 -7 15 -13 29 -13 16 0 22 4 18 14 -4 11 5 17 33 22 21 4 49 13 63 20 14 7
29 13 33 14 4 0 5 -82 1 -182z m-924 162 c0 -5 -4 -10 -10 -10 -5 0 -10 5 -10
10 0 6 5 10 10 10 6 0 10 -4 10 -10z m7627 -102 c-2 -24 -4 -7 -4 37 0 44 2
63 4 43 2 -21 2 -57 0 -80z m-7477 81 c8 0 2 -5 -14 -9 -31 -10 -46 -6 -46 12
0 6 10 8 23 4 12 -3 29 -6 37 -7z m518 5 c12 -4 22 -10 22 -15 0 -12 -72 -4
-96 9 -16 10 -14 11 16 12 19 0 45 -3 58 -6z m4152 -24 c0 -16 -4 -30 -10 -30
-5 0 -10 14 -10 30 0 17 5 30 10 30 6 0 10 -13 10 -30z m-4215 -20 c-3 -5 -10
-10 -16 -10 -5 0 -9 5 -9 10 0 6 7 10 16 10 8 0 12 -4 9 -10z m55 0 c0 -5 -4
-10 -9 -10 -6 0 -13 5 -16 10 -3 6 1 10 9 10 9 0 16 -4 16 -10z m60 6 c0 -9
-30 -14 -35 -6 -4 6 3 10 14 10 12 0 21 -2 21 -4z m-760 -123 c2 -160 -1 -286
-6 -295 -3 -4 -10 -8 -15 -8 -9 0 -12 387 -2 403 15 25 22 -6 23 -100z m4851
-64 c-8 -18 -10 -4 -10 62 -1 47 2 89 7 93 11 12 14 -127 3 -155z m2846 24
c-2 -21 -4 -6 -4 32 0 39 2 55 4 38 2 -18 2 -50 0 -70z m-3318 25 c-2 -48 -2
-49 -8 -18 -6 33 -3 70 5 70 2 0 3 -24 3 -52z m2654 25 c-18 -2 -48 -2 -65 0
-18 2 -4 4 32 4 36 0 50 -2 33 -4z m-4916 -85 c-3 -8 -6 -5 -6 6 -1 11 2 17 5
13 3 -3 4 -12 1 -19z m-2168 -113 c-1 -63 -5 -115 -9 -115 -9 0 -17 51 -19
113 -2 38 15 117 25 117 3 0 4 -52 3 -115z m7762 57 c-6 -2 -11 -13 -12 -25 0
-12 -3 -16 -6 -10 -2 7 1 30 8 50 12 34 14 36 17 13 2 -13 -1 -26 -7 -28z
m-1721 -159 c0 -87 2 -303 5 -480 2 -200 0 -323 -6 -323 -5 0 -9 30 -10 68 0
37 -2 171 -4 297 -9 605 -9 595 5 595 6 0 10 -59 10 -157z m-418 -70 c1 -119
4 -176 8 -143 5 39 7 19 6 -70 0 -90 -1 -107 -5 -60 -3 36 -8 -259 -11 -655
l-5 -720 -3 929 c-1 511 1 927 4 924 3 -4 6 -95 6 -205z m-715 -166 c2 -182
-1 -348 -6 -367 l-9 -35 -3 35 c-1 19 -2 42 -1 50 1 8 2 158 2 333 0 174 4
317 8 317 4 0 8 -150 9 -333z m2763 284 c0 -6 -4 -13 -10 -16 -5 -3 -10 1 -10
9 0 9 5 16 10 16 6 0 10 -4 10 -9z m47 -53 c-3 -8 -6 -5 -6 6 -1 11 2 17 5 13
3 -3 4 -12 1 -19z m-47 -108 c0 -53 -4 -90 -10 -90 -6 0 -9 37 -9 90 0 50 5
90 10 90 5 0 9 -40 9 -90z m-5412 55 c2 -2 -3 -11 -12 -20 -20 -21 -21 -59 -1
-79 17 -17 20 -86 4 -86 -8 0 -9 -34 -4 -114 4 -75 3 -116 -4 -121 -13 -7 -13
-193 0 -217 16 -29 17 -149 2 -155 -17 -7 -17 -70 0 -76 9 -4 9 -7 -1 -15 -10
-7 -14 -117 -18 -513 -3 -277 -9 -508 -13 -512 -14 -14 -21 183 -22 588 -1
215 -2 532 -3 705 -1 173 0 386 2 474 l4 158 31 -6 c17 -3 33 -8 35 -11z
m2172 -5 c0 -5 -4 -10 -10 -10 -5 0 -10 5 -10 10 0 6 5 10 10 10 6 0 10 -4 10
-10z m-3 -57 c-3 -10 -5 -4 -5 12 0 17 2 24 5 18 2 -7 2 -21 0 -30z m-2834 2
c4 -8 2 -17 -3 -20 -6 -4 -10 3 -10 14 0 25 6 27 13 6z m574 -32 c-3 -10 -5
-4 -5 12 0 17 2 24 5 18 2 -7 2 -21 0 -30z m-2127 -92 c0 -107 -15 -112 -17
-5 -1 47 2 84 8 84 5 0 9 -36 9 -79z m1556 -98 c-2 -98 -5 -269 -5 -380 -1
-115 -5 -203 -10 -203 -5 0 -8 109 -6 263 2 144 4 315 4 380 1 71 5 117 11
117 7 0 9 -62 6 -177z m2851 -50 c-3 -10 -5 -4 -5 12 0 17 2 24 5 18 2 -7 2
-21 0 -30z m-2280 -125 c-3 -7 -5 -2 -5 12 0 14 2 19 5 13 2 -7 2 -19 0 -25z
m90 -30 c-2 -13 -4 -3 -4 22 0 25 2 35 4 23 2 -13 2 -33 0 -45z m3380 -80 c-2
-29 -3 -8 -3 47 0 55 1 79 3 53 2 -26 2 -71 0 -100z m-5597 27 c0 -25 -3 -45
-8 -45 -4 0 -6 20 -4 45 2 25 6 45 8 45 2 0 4 -20 4 -45z m4865 -64 c3 -5 1
-12 -5 -16 -5 -3 -10 1 -10 9 0 18 6 21 15 7z m-5 -96 c0 -59 -15 -59 -16 0 0
25 3 45 8 45 4 0 8 -20 8 -45z m-4867 -66 c-9 -9 -10 32 -3 81 2 14 5 3 7 -24
2 -27 0 -53 -4 -57z m5604 -21 c-2 -24 -4 -5 -4 42 0 47 2 66 4 43 2 -24 2
-62 0 -85z m-740 10 c-3 -8 -6 -5 -6 6 -1 11 2 17 5 13 3 -3 4 -12 1 -19z
m1140 -100 c-2 -18 -4 -6 -4 27 0 33 2 48 4 33 2 -15 2 -42 0 -60z m-1137 32
c0 -16 -4 -30 -10 -30 -11 0 -14 43 -3 53 11 12 13 8 13 -23z m0 -87 c0 -51
-14 -51 -16 0 -2 31 2 47 12 47 2 0 4 -21 4 -47z m-3310 -5 c0 -25 -3 -29 -10
-18 -13 20 -13 50 0 50 6 0 10 -15 10 -32z m4460 -42 c0 -19 -4 -38 -10 -41
-6 -4 -10 10 -10 34 0 23 5 41 10 41 6 0 10 -15 10 -34z m-1150 -152 c0 -36
-4 -63 -8 -60 -12 7 -14 126 -2 126 6 0 10 -29 10 -66z m-9 -127 c-13 -13 -15
11 -4 40 7 16 8 15 11 -6 2 -13 -1 -28 -7 -34z m6 -109 c-2 -13 -4 -3 -4 22 0
25 2 35 4 23 2 -13 2 -33 0 -45z m2743 -303 c0 -3 -7 -17 -16 -31 -16 -24 -16
-26 5 -40 19 -13 22 -24 19 -67 -3 -57 1 -54 -123 -82 -102 -24 -97 -28 -91
72 6 114 8 124 21 120 5 -2 23 5 40 15 28 17 145 27 145 13z m-7660 -155 c0
-69 -12 -92 -24 -47 -3 12 -6 43 -6 70 0 35 4 47 15 47 12 0 15 -14 15 -70z"/>
<path d="M790 5340 c8 -5 22 -9 30 -9 10 0 8 3 -5 9 -27 12 -43 12 -25 0z"/>
<path d="M893 5343 c9 -2 23 -2 30 0 6 3 -1 5 -18 5 -16 0 -22 -2 -12 -5z"/>
<path d="M1000 5333 c14 -3 30 -9 37 -14 7 -6 13 -6 17 -1 8 13 -18 22 -52 21
l-27 -2 25 -4z"/>
<path d="M873 5323 c9 -2 23 -2 30 0 6 3 -1 5 -18 5 -16 0 -22 -2 -12 -5z"/>
<path d="M3427 5123 c12 -2 26 -17 33 -34 10 -23 15 -27 26 -18 11 9 16 7 21
-7 8 -18 33 -31 33 -17 0 4 -5 21 -12 39 -9 26 -18 33 -47 38 -20 3 -45 5 -56
5 -18 -2 -18 -2 2 -6z"/>
<path d="M2915 5080 c3 -5 8 -10 11 -10 2 0 4 5 4 10 0 6 -5 10 -11 10 -5 0
-7 -4 -4 -10z"/>
<path d="M8240 5115 c0 -8 7 -15 15 -15 8 0 15 4 15 9 0 5 -7 11 -15 15 -9 3
-15 0 -15 -9z"/>
<path d="M8333 5123 c9 -2 23 -2 30 0 6 3 -1 5 -18 5 -16 0 -22 -2 -12 -5z"/>
<path d="M2423 5073 c15 -2 37 -2 50 0 12 2 0 4 -28 4 -27 0 -38 -2 -22 -4z"/>
<path d="M2523 5053 c9 -2 23 -2 30 0 6 3 -1 5 -18 5 -16 0 -22 -2 -12 -5z"/>
<path d="M4568 4973 c7 -3 16 -2 19 1 4 3 -2 6 -13 5 -11 0 -14 -3 -6 -6z"/>
<path d="M1565 5020 c-3 -5 3 -10 15 -10 12 0 18 5 15 10 -3 6 -10 10 -15 10
-5 0 -12 -4 -15 -10z"/>
<path d="M1768 4993 c6 -2 18 -2 25 0 6 3 1 5 -13 5 -14 0 -19 -2 -12 -5z"/>
<path d="M1928 4963 c7 -3 16 -2 19 1 4 3 -2 6 -13 5 -11 0 -14 -3 -6 -6z"/>
<path d="M1988 4963 c6 -2 18 -2 25 0 6 3 1 5 -13 5 -14 0 -19 -2 -12 -5z"/>
<path d="M2275 4701 c-26 -10 55 -21 144 -20 l66 1 -60 9 c-33 4 -76 10 -95
13 -19 2 -44 1 -55 -3z"/>
<path d="M2530 4670 c19 -13 30 -13 30 0 0 6 -10 10 -22 10 -19 0 -20 -2 -8
-10z"/>
<path d="M6990 4650 c20 -13 33 -13 25 0 -3 6 -14 10 -23 10 -15 0 -15 -2 -2
-10z"/>
<path d="M7279 4591 c10 -7 10 -10 1 -16 -9 -6 -6 -12 11 -21 32 -18 36 -17
42 5 6 25 -10 41 -42 41 -19 0 -22 -3 -12 -9z"/>
<path d="M7168 4553 c6 -2 18 -2 25 0 6 3 1 5 -13 5 -14 0 -19 -2 -12 -5z"/>
<path d="M6971 4364 c0 -11 3 -14 6 -6 3 7 2 16 -1 19 -3 4 -6 -2 -5 -13z"/>
<path d="M6175 3280 c-3 -5 -1 -10 4 -10 6 0 11 5 11 10 0 6 -2 10 -4 10 -3 0
-8 -4 -11 -10z"/>
<path d="M1791 3004 c0 -11 3 -14 6 -6 3 7 2 16 -1 19 -3 4 -6 -2 -5 -13z"/>
<path d="M3511 2766 c-8 -10 -9 -29 -3 -63 l9 -48 4 63 c2 34 3 62 3 62 -1 0
-7 -6 -13 -14z"/>
<path d="M2243 2265 c0 -22 2 -30 4 -17 2 12 2 30 0 40 -3 9 -5 -1 -4 -23z"/>
<path d="M5215 5750 c28 -12 83 -12 90 0 4 6 -16 10 -52 9 -42 0 -52 -3 -38
-9z"/>
<path d="M5428 5742 c-16 -10 -28 -20 -28 -23 0 -3 28 -11 63 -17 34 -6 82
-16 107 -22 49 -12 106 -24 190 -39 30 -5 82 -15 115 -21 33 -6 83 -15 110
-20 28 -5 64 -12 80 -15 17 -4 86 -18 155 -31 69 -13 156 -31 194 -39 68 -14
71 -14 122 10 48 23 76 56 60 72 -3 4 1 15 11 25 15 17 15 19 0 36 -10 11 -17
36 -17 61 0 40 -2 43 -22 36 -36 -12 -88 -14 -94 -4 -3 5 -222 9 -512 8 -453
-1 -510 -3 -534 -17z m1132 -50 c0 -4 -9 -13 -20 -20 -27 -17 -47 -5 -23 14
20 15 43 18 43 6z"/>
<path d="M6853 5715 c0 -27 2 -38 4 -22 2 15 2 37 0 50 -2 12 -4 0 -4 -28z"/>
<path d="M7670 5726 c0 -3 9 -10 20 -16 11 -6 20 -8 20 -6 0 3 -9 10 -20 16
-11 6 -20 8 -20 6z"/>
<path d="M7560 5695 c0 -8 4 -15 10 -15 5 0 7 7 4 15 -4 8 -8 15 -10 15 -2 0
-4 -7 -4 -15z"/>
<path d="M5021 5675 c10 -10 22 -13 34 -9 18 7 18 8 -1 15 -10 4 -26 8 -34 8
-12 1 -12 -1 1 -14z"/>
<path d="M6778 5663 c7 -3 16 -2 19 1 4 3 -2 6 -13 5 -11 0 -14 -3 -6 -6z"/>
<path d="M4940 5615 c-10 -12 -10 -15 4 -15 9 0 16 7 16 15 0 8 -2 15 -4 15
-2 0 -9 -7 -16 -15z"/>
<path d="M4877 5594 c4 -10 -5 -14 -34 -14 -28 0 -42 -6 -52 -21 -12 -20 -11
-21 6 -14 10 4 37 14 60 22 50 17 61 29 34 36 -14 3 -18 1 -14 -9z"/>
<path d="M4728 5513 c7 -3 16 -2 19 1 4 3 -2 6 -13 5 -11 0 -14 -3 -6 -6z"/>
<path d="M6660 5510 c0 -5 -11 -10 -25 -10 -14 0 -25 -4 -25 -10 0 -9 44 -11
88 -3 20 3 21 5 8 18 -17 17 -46 20 -46 5z"/>
<path d="M7820 5490 c0 -5 5 -10 10 -10 6 0 10 5 10 10 0 6 -4 10 -10 10 -5 0
-10 -4 -10 -10z"/>
<path d="M6160 5455 c0 -8 7 -15 16 -15 14 0 14 3 4 15 -7 8 -14 15 -16 15 -2
0 -4 -7 -4 -15z"/>
<path d="M7010 5460 c19 -13 30 -13 30 0 0 6 -10 10 -22 10 -19 0 -20 -2 -8
-10z"/>
<path d="M7088 5443 c6 -2 18 -2 25 0 6 3 1 5 -13 5 -14 0 -19 -2 -12 -5z"/>
<path d="M6130 5410 c19 -13 30 -13 30 0 0 6 -10 10 -22 10 -19 0 -20 -2 -8
-10z"/>
<path d="M7457 5370 c-16 -19 -16 -20 3 -20 22 0 36 18 23 31 -5 5 -16 1 -26
-11z"/>
<path d="M5955 5350 c-3 -5 -2 -10 4 -10 5 0 13 5 16 10 3 6 2 10 -4 10 -5 0
-13 -4 -16 -10z"/>
<path d="M6880 5349 c0 -5 5 -7 10 -4 6 3 10 8 10 11 0 2 -4 4 -10 4 -5 0 -10
-5 -10 -11z"/>
<path d="M7655 5130 c-3 -5 1 -10 9 -10 9 0 16 5 16 10 0 6 -4 10 -9 10 -6 0
-13 -4 -16 -10z"/>
<path d="M1032 5063 l-23 -26 37 6 c46 8 65 24 44 37 -23 15 -33 12 -58 -17z"/>
<path d="M6880 5056 c0 -9 5 -16 10 -16 6 0 10 4 10 9 0 6 -4 13 -10 16 -5 3
-10 -1 -10 -9z"/>
<path d="M4178 4943 c12 -2 32 -2 45 0 12 2 2 4 -23 4 -25 0 -35 -2 -22 -4z"/>
<path d="M4280 4946 c0 -2 11 -6 25 -8 13 -3 22 -1 19 3 -5 9 -44 13 -44 5z"/>
<path d="M4705 4860 c11 -5 29 -8 40 -8 16 0 15 2 -5 8 -34 11 -60 11 -35 0z"/>
<path d="M4083 4786 c14 -11 15 -15 5 -19 -7 -3 -3 -6 9 -6 12 -1 25 4 29 10
8 14 -14 29 -41 29 -19 -1 -19 -1 -2 -14z"/>
<path d="M4228 4774 c6 -3 10 -10 7 -14 -6 -9 16 -14 110 -25 214 -25 425 -48
505 -56 184 -18 196 -19 170 -10 l-25 8 30 4 30 4 -21 21 c-24 24 -79 30 -344
39 -80 3 -160 8 -177 11 -20 3 -33 1 -33 -6 0 -5 -10 -10 -22 -9 -22 0 -22 1
-3 9 11 5 16 9 10 9 -5 1 -21 4 -34 8 -20 5 -23 3 -18 -10 5 -13 1 -17 -21
-16 -17 1 -20 3 -9 6 33 9 17 23 -25 22 -37 -1 -39 -2 -18 -9 21 -7 19 -8 -17
-9 -23 -1 -43 3 -45 8 -1 5 -16 12 -33 15 -16 4 -24 3 -17 0z m357 -44 c-3 -5
-12 -7 -20 -3 -21 7 -19 13 6 13 11 0 18 -4 14 -10z m105 1 c0 -5 -11 -8 -25
-7 -33 1 -33 16 0 16 14 0 25 -4 25 -9z m106 -12 c7 -11 -27 -11 -45 0 -9 6
-5 9 13 9 15 0 29 -4 32 -9z m89 -9 c7 -12 -22 -12 -50 0 -17 7 -15 9 12 9 17
1 35 -3 38 -9z"/>
<path d="M4168 4753 c6 -2 18 -2 25 0 6 3 1 5 -13 5 -14 0 -19 -2 -12 -5z"/>
<path d="M5160 4704 c1 -27 28 -31 279 -44 221 -11 264 -11 272 1 4 7 7 14 6
15 -3 2 -291 22 -439 30 -67 4 -118 3 -118 -2z"/>
<path d="M5905 4685 c50 -7 104 -13 120 -13 17 0 -8 6 -55 14 -47 7 -101 12
-120 12 -19 0 6 -6 55 -13z"/>
<path d="M0 3610 c0 -594 3 -1080 6 -1080 3 0 19 9 36 21 16 12 32 18 35 15
10 -10 -39 -56 -59 -56 -17 0 -18 -47 -18 -1255 l0 -1255 230 0 229 0 1 1153
c1 1084 6 1360 23 1130 4 -50 4 -584 0 -1187 l-6 -1096 32 0 31 0 -1 338 c0
211 -4 329 -9 315 -19 -46 -30 -23 -30 61 0 83 12 115 31 85 5 -8 9 99 9 257
0 250 -1 272 -17 270 -25 -2 -27 28 -7 87 22 62 28 327 29 1197 0 418 -3 547
-13 588 -8 28 -18 52 -22 52 -4 0 -6 116 -5 258 3 213 6 264 20 297 10 22 14
37 9 33 -4 -4 -13 -3 -21 3 -9 8 -13 40 -13 110 0 99 8 121 36 99 12 -11 14
25 12 296 -3 308 -3 309 -24 306 -12 -1 -128 6 -259 18 -131 11 -244 20 -252
20 -11 0 -13 -183 -13 -1080z m486 6 c0 -35 -5 -68 -9 -73 -5 -4 -7 26 -5 69
4 92 16 95 14 4z m3 -376 c0 -164 -5 -292 -10 -296 -9 -5 -11 73 -9 291 1 61
1 117 1 125 0 33 11 170 15 170 2 0 3 -130 3 -290z m18 -82 c-3 -8 -6 -5 -6 6
-1 11 2 17 5 13 3 -3 4 -12 1 -19z m-30 -330 c-2 -18 -4 -6 -4 27 0 33 2 48 4
33 2 -15 2 -42 0 -60z m0 -310 c-2 -13 -4 -5 -4 17 -1 22 1 32 4 23 2 -10 2
-28 0 -40z m0 -115 c-3 -10 -5 -2 -5 17 0 19 2 27 5 18 2 -10 2 -26 0 -35z
m-413 -97 c-3 -21 -9 -35 -11 -32 -3 3 -2 21 1 42 4 20 10 34 12 31 3 -3 2
-21 -2 -41z"/>
<path d="M5098 4673 c7 -3 16 -2 19 1 4 3 -2 6 -13 5 -11 0 -14 -3 -6 -6z"/>
<path d="M5056 4659 c3 -5 29 -9 57 -8 59 1 54 5 -15 12 -26 2 -45 1 -42 -4z"/>
<path d="M5240 4640 c36 -5 85 -11 110 -14 26 -4 40 -3 35 3 -6 5 -55 11 -110
14 -84 5 -89 4 -35 -3z"/>
<path d="M5743 4615 c0 -22 2 -30 4 -17 2 12 2 30 0 40 -3 9 -5 -1 -4 -23z"/>
<path d="M5408 4623 c6 -2 18 -2 25 0 6 3 1 5 -13 5 -14 0 -19 -2 -12 -5z"/>
<path d="M5468 4613 c12 -2 30 -2 40 0 9 3 -1 5 -23 4 -22 0 -30 -2 -17 -4z"/>
<path d="M5563 4603 c9 -2 23 -2 30 0 6 3 -1 5 -18 5 -16 0 -22 -2 -12 -5z"/>
<path d="M5658 4593 c7 -3 16 -2 19 1 4 3 -2 6 -13 5 -11 0 -14 -3 -6 -6z"/>
<path d="M4067 4314 c3 -9 9 -12 12 -7 3 4 10 11 15 16 5 4 0 7 -12 7 -15 0
-20 -4 -15 -16z"/>
<path d="M5130 4227 c0 -16 32 -22 170 -32 41 -3 134 -9 207 -14 73 -5 136
-12 141 -15 4 -2 13 3 19 13 10 16 -2 19 -181 34 -364 32 -356 32 -356 14z"/>
<path d="M5088 4203 c7 -3 16 -2 19 1 4 3 -2 6 -13 5 -11 0 -14 -3 -6 -6z"/>
<path d="M5690 4162 c-8 -10 -31 -24 -50 -30 l-35 -12 38 5 c37 4 37 3 38 -33
0 -20 3 -109 5 -197 6 -273 22 -251 23 33 1 138 0 252 -1 252 -2 0 -10 -8 -18
-18z"/>
<path d="M3498 4148 c7 -7 8 -17 2 -28 -5 -9 -5 -22 1 -31 12 -19 12 -89 -1
-89 -5 0 -8 -6 -6 -12 3 -7 7 -46 10 -85 5 -61 4 -73 -9 -73 -20 0 -19 -16 1
-24 9 -3 18 -6 20 -6 2 0 4 81 4 180 0 163 -2 180 -17 180 -13 0 -14 -3 -5
-12z"/>
<path d="M5702 3630 c0 -14 2 -19 5 -12 2 6 2 18 0 25 -3 6 -5 1 -5 -13z"/>
<path d="M3684 3510 c0 -52 1 -74 3 -47 2 26 2 68 0 95 -2 26 -3 4 -3 -48z"/>
<path d="M3513 3545 c0 -22 2 -30 4 -17 2 12 2 30 0 40 -3 9 -5 -1 -4 -23z"/>
<path d="M2867 3553 c-11 -10 -8 -53 3 -53 6 0 10 14 10 30 0 31 -2 35 -13 23z"/>
<path d="M3511 3474 c0 -11 3 -14 6 -6 3 7 2 16 -1 19 -3 4 -6 -2 -5 -13z"/>
<path d="M5682 3445 c0 -16 2 -22 5 -12 2 9 2 23 0 30 -3 6 -5 -1 -5 -18z"/>
<path d="M807 3323 c-13 -13 -7 -43 7 -37 8 3 14 14 13 25 -1 20 -9 24 -20 12z"/>
<path d="M900 3280 c8 -5 11 -12 7 -16 -4 -4 -1 -14 6 -22 15 -19 12 -701 -4
-716 -5 -6 -9 -14 -9 -18 0 -14 28 -9 45 9 15 14 17 37 15 157 -2 78 -2 143
-1 146 6 17 5 300 -1 300 -5 0 -8 31 -8 69 0 53 -4 70 -16 75 -8 3 -12 10 -9
16 3 6 -4 10 -17 10 -18 0 -20 -2 -8 -10z"/>
<path d="M963 3170 c0 -25 2 -35 4 -22 2 12 2 32 0 45 -2 12 -4 2 -4 -23z"/>
<path d="M3102 3090 c0 -19 2 -27 5 -17 2 9 2 25 0 35 -3 9 -5 1 -5 -18z"/>
<path d="M5970 3063 c0 -13 5 -23 10 -23 13 0 13 11 0 30 -8 12 -10 11 -10 -7z"/>
<path d="M1376 3025 c-3 -8 -1 -15 4 -15 6 0 10 7 10 15 0 8 -2 15 -4 15 -2 0
-6 -7 -10 -15z"/>
<path d="M5980 3023 c0 -5 8 -17 17 -28 14 -18 15 -18 9 -2 -3 10 -6 23 -6 28
0 5 -4 9 -10 9 -5 0 -10 -3 -10 -7z"/>
<path d="M6116 2952 c-7 -12 4 -71 14 -77 7 -5 4 75 -4 82 -2 2 -7 0 -10 -5z"/>
<path d="M990 2930 c0 -5 5 -10 11 -10 5 0 7 5 4 10 -3 6 -8 10 -11 10 -2 0
-4 -4 -4 -10z"/>
<path d="M981 2888 c-1 -16 4 -28 9 -28 12 0 12 8 0 35 -8 18 -9 17 -9 -7z"/>
<path d="M1340 2861 c0 -6 4 -13 10 -16 6 -3 7 1 4 9 -7 18 -14 21 -14 7z"/>
<path d="M790 2465 c0 -8 7 -15 15 -15 8 0 15 7 15 15 0 8 -7 15 -15 15 -8 0
-15 -7 -15 -15z"/>
<path d="M696 1943 c-15 -15 -5 -84 14 -103 11 -11 20 -19 21 -17 5 23 7 86 3
99 -5 18 -28 30 -38 21z"/>
<path d="M3684 1720 c0 -69 1 -97 3 -62 2 34 2 90 0 125 -2 34 -3 6 -3 -63z"/>
<path d="M3683 1480 c0 -25 2 -35 4 -22 2 12 2 32 0 45 -2 12 -4 2 -4 -23z"/>
<path d="M5706 1234 c-9 -69 -6 -656 4 -679 5 -12 9 135 9 353 1 204 -1 372
-3 372 -2 0 -6 -21 -10 -46z"/>
<path d="M3682 990 c0 -19 2 -27 5 -17 2 9 2 25 0 35 -3 9 -5 1 -5 -18z"/>
<path d="M3684 600 c0 -124 2 -174 3 -112 2 61 2 163 0 225 -1 61 -3 11 -3
-113z"/>
<path d="M3802 430 c0 -14 2 -19 5 -12 2 6 2 18 0 25 -3 6 -5 1 -5 -13z"/>
<path d="M5700 388 c0 -13 5 -30 10 -38 7 -11 10 -7 10 17 0 17 -4 35 -10 38
-6 3 -10 -4 -10 -17z"/>
</g>
</svg>
